<?xml version="1.0" encoding="UTF-8" standalone="no"?>
<!DOCTYPE svg PUBLIC "-//W3C//DTD SVG 1.1//EN"
 "http://www.w3.org/Graphics/SVG/1.1/DTD/svg11.dtd">
<!-- Generated by graphviz version 2.26.3 (20100126.1600)
 -->
<!-- Title: G Pages: 1 -->
<svg width="576pt" height="222pt"
 viewBox="0.00 0.00 576.00 222.00" xmlns="http://www.w3.org/2000/svg" xmlns:xlink="http://www.w3.org/1999/xlink">
<g id="graph1" class="graph" transform="scale(1 1) rotate(0) translate(4 218)">
<title>G</title>
<polygon fill="white" stroke="white" points="-4,5 -4,-218 573,-218 573,5 -4,5"/>
<g id="graph2" class="cluster"><title>cluster_Global</title>
<polyline fill="none" stroke="gray" points="410,-8 548,-8 "/>
<path fill="none" stroke="gray" d="M548,-8C554,-8 560,-14 560,-20"/>
<polyline fill="none" stroke="gray" points="560,-20 560,-178 "/>
<path fill="none" stroke="gray" d="M560,-178C560,-184 554,-190 548,-190"/>
<polyline fill="none" stroke="gray" points="548,-190 410,-190 "/>
<path fill="none" stroke="gray" d="M410,-190C404,-190 398,-184 398,-178"/>
<polyline fill="none" stroke="gray" points="398,-178 398,-20 "/>
<path fill="none" stroke="gray" d="M398,-20C398,-14 404,-8 410,-8"/>
<text text-anchor="middle" x="479" y="-176.1" font-family="Times Roman,serif" font-size="11.00" fill="gray">Global</text>
</g>
<!-- \\ArrayObjectA -->
<g id="node2" class="node"><title>\\ArrayObjectA</title>
<polygon fill="none" stroke="black" points="528,-160 430,-160 430,-124 528,-124 528,-160"/>
<text text-anchor="middle" x="479" y="-139.1" font-family="Courier,monospace" font-size="11.00">ArrayObjectA</text>
</g>
<!-- \\ArrayObject -->
<g id="node6" class="node"><title>\\ArrayObject</title>
<ellipse fill="none" stroke="black" cx="167" cy="-196" rx="73.0388" ry="18.3848"/>
<text text-anchor="middle" x="167" y="-192.4" font-family="Times Roman,serif" font-size="14.00" fill="gray">\ArrayObject</text>
</g>
<!-- \\ArrayObjectA&#45;&gt;\\ArrayObject -->
<g id="edge3" class="edge"><title>\\ArrayObjectA&#45;&gt;\\ArrayObject</title>
<path fill="none" stroke="black" d="M429.725,-151.477C401.692,-156.792 365.913,-163.45 334,-169 303.069,-174.379 268.852,-179.974 239.485,-184.666"/>
<polygon fill="none" stroke="black" points="238.638,-181.257 229.313,-186.286 239.739,-188.17 238.638,-181.257"/>
</g>
<!-- \\JsonSerializable -->
<g id="node8" class="node"><title>\\JsonSerializable</title>
<ellipse fill="none" stroke="black" cx="167" cy="-142" rx="91.2168" ry="18.3848"/>
<text text-anchor="middle" x="167" y="-138.4" font-family="Times Roman,serif" font-size="14.00" fill="gray">\JsonSerializable</text>
</g>
<!-- \\ArrayObjectA&#45;&gt;\\JsonSerializable -->
<g id="edge5" class="edge"><title>\\ArrayObjectA&#45;&gt;\\JsonSerializable</title>
<path fill="none" stroke="black" stroke-dasharray="1,5" d="M429.907,-142C386.781,-142 322.652,-142 268.528,-142"/>
<polygon fill="none" stroke="black" points="268.196,-138.5 258.196,-142 268.196,-145.5 268.196,-138.5"/>
</g>
<!-- \\ArrayObjectATest -->
<g id="node3" class="node"><title>\\ArrayObjectATest</title>
<polygon fill="none" stroke="black" points="541,-106 417,-106 417,-70 541,-70 541,-106"/>
<text text-anchor="middle" x="479" y="-85.1" font-family="Courier,monospace" font-size="11.00">ArrayObjectATest</text>
</g>
<!-- \\PHPUnit_Framework_TestCase -->
<g id="node10" class="node"><title>\\PHPUnit_Framework_TestCase</title>
<ellipse fill="none" stroke="black" cx="167" cy="-88" rx="164.756" ry="18.3848"/>
<text text-anchor="middle" x="167" y="-84.4" font-family="Times Roman,serif" font-size="14.00" fill="gray">\PHPUnit_Framework_TestCase</text>
</g>
<!-- \\ArrayObjectATest&#45;&gt;\\PHPUnit_Framework_TestCase -->
<g id="edge7" class="edge"><title>\\ArrayObjectATest&#45;&gt;\\PHPUnit_Framework_TestCase</title>
<path fill="none" stroke="black" d="M416.237,-88C394.384,-88 368.674,-88 342.215,-88"/>
<polygon fill="none" stroke="black" points="342.045,-84.5001 332.045,-88 342.045,-91.5001 342.045,-84.5001"/>
</g>
<!-- \\AllArrayObjectATest -->
<g id="node4" class="node"><title>\\AllArrayObjectATest</title>
<polygon fill="none" stroke="black" points="551,-52 407,-52 407,-16 551,-16 551,-52"/>
<text text-anchor="middle" x="479" y="-31.1" font-family="Courier,monospace" font-size="11.00">AllArrayObjectATest</text>
</g>
<!-- \\PHPUnit_Framework_TestSuite -->
<g id="node12" class="node"><title>\\PHPUnit_Framework_TestSuite</title>
<ellipse fill="none" stroke="black" cx="167" cy="-34" rx="166.877" ry="18.3848"/>
<text text-anchor="middle" x="167" y="-30.4" font-family="Times Roman,serif" font-size="14.00" fill="gray">\PHPUnit_Framework_TestSuite</text>
</g>
<!-- \\AllArrayObjectATest&#45;&gt;\\PHPUnit_Framework_TestSuite -->
<g id="edge9" class="edge"><title>\\AllArrayObjectATest&#45;&gt;\\PHPUnit_Framework_TestSuite</title>
<path fill="none" stroke="black" d="M406.244,-34C387.271,-34 365.976,-34 344.117,-34"/>
<polygon fill="none" stroke="black" points="344.04,-30.5001 334.04,-34 344.04,-37.5001 344.04,-30.5001"/>
</g>
</g>
</svg>
