<?xml version="1.0" encoding="UTF-8" standalone="no"?>
<!DOCTYPE svg PUBLIC "-//W3C//DTD SVG 1.1//EN"
 "http://www.w3.org/Graphics/SVG/1.1/DTD/svg11.dtd">
<!-- Generated by graphviz version 2.26.3 (20100126.1600)
 -->
<!-- Title: G Pages: 1 -->
<svg width="576pt" height="244pt"
 viewBox="0.00 0.00 576.00 244.00" xmlns="http://www.w3.org/2000/svg" xmlns:xlink="http://www.w3.org/1999/xlink">
<g id="graph1" class="graph" transform="scale(1 1) rotate(0) translate(4 240)">
<title>G</title>
<polygon fill="white" stroke="white" points="-4,5 -4,-240 573,-240 573,5 -4,5"/>
<g id="graph2" class="cluster"><title>cluster_Global</title>
<polyline fill="none" stroke="gray" points="410,-46 548,-46 "/>
<path fill="none" stroke="gray" d="M548,-46C554,-46 560,-52 560,-58"/>
<polyline fill="none" stroke="gray" points="560,-58 560,-216 "/>
<path fill="none" stroke="gray" d="M560,-216C560,-222 554,-228 548,-228"/>
<polyline fill="none" stroke="gray" points="548,-228 410,-228 "/>
<path fill="none" stroke="gray" d="M410,-228C404,-228 398,-222 398,-216"/>
<polyline fill="none" stroke="gray" points="398,-216 398,-58 "/>
<path fill="none" stroke="gray" d="M398,-58C398,-52 404,-46 410,-46"/>
<text text-anchor="middle" x="479" y="-214.1" font-family="Times Roman,serif" font-size="11.00" fill="gray">Global</text>
</g>
<!-- \\ArrayObjectATest -->
<g id="node2" class="node"><title>\\ArrayObjectATest</title>
<polygon fill="none" stroke="black" points="541,-198 417,-198 417,-162 541,-162 541,-198"/>
<text text-anchor="middle" x="479" y="-177.1" font-family="Courier,monospace" font-size="11.00">ArrayObjectATest</text>
</g>
<!-- \\PHPUnit_Framework_TestCase -->
<g id="node6" class="node"><title>\\PHPUnit_Framework_TestCase</title>
<ellipse fill="none" stroke="black" cx="167" cy="-180" rx="164.756" ry="18.3848"/>
<text text-anchor="middle" x="167" y="-176.4" font-family="Times Roman,serif" font-size="14.00" fill="gray">\PHPUnit_Framework_TestCase</text>
</g>
<!-- \\ArrayObjectATest&#45;&gt;\\PHPUnit_Framework_TestCase -->
<g id="edge3" class="edge"><title>\\ArrayObjectATest&#45;&gt;\\PHPUnit_Framework_TestCase</title>
<path fill="none" stroke="black" d="M416.237,-180C394.384,-180 368.674,-180 342.215,-180"/>
<polygon fill="none" stroke="black" points="342.045,-176.5 332.045,-180 342.045,-183.5 342.045,-176.5"/>
</g>
<!-- \\AllArrayObjectATest -->
<g id="node3" class="node"><title>\\AllArrayObjectATest</title>
<polygon fill="none" stroke="black" points="551,-144 407,-144 407,-108 551,-108 551,-144"/>
<text text-anchor="middle" x="479" y="-123.1" font-family="Courier,monospace" font-size="11.00">AllArrayObjectATest</text>
</g>
<!-- \\PHPUnit_Framework_TestSuite -->
<g id="node8" class="node"><title>\\PHPUnit_Framework_TestSuite</title>
<ellipse fill="none" stroke="black" cx="167" cy="-126" rx="166.877" ry="18.3848"/>
<text text-anchor="middle" x="167" y="-122.4" font-family="Times Roman,serif" font-size="14.00" fill="gray">\PHPUnit_Framework_TestSuite</text>
</g>
<!-- \\AllArrayObjectATest&#45;&gt;\\PHPUnit_Framework_TestSuite -->
<g id="edge5" class="edge"><title>\\AllArrayObjectATest&#45;&gt;\\PHPUnit_Framework_TestSuite</title>
<path fill="none" stroke="black" d="M406.244,-126C387.271,-126 365.976,-126 344.117,-126"/>
<polygon fill="none" stroke="black" points="344.04,-122.5 334.04,-126 344.04,-129.5 344.04,-122.5"/>
</g>
<!-- \\ArrayObjectA -->
<g id="node4" class="node"><title>\\ArrayObjectA</title>
<polygon fill="none" stroke="black" points="528,-90 430,-90 430,-54 528,-54 528,-90"/>
<text text-anchor="middle" x="479" y="-69.1" font-family="Courier,monospace" font-size="11.00">ArrayObjectA</text>
</g>
<!-- \\ArrayObject -->
<g id="node10" class="node"><title>\\ArrayObject</title>
<ellipse fill="none" stroke="black" cx="167" cy="-72" rx="73.0388" ry="18.3848"/>
<text text-anchor="middle" x="167" y="-68.4" font-family="Times Roman,serif" font-size="14.00" fill="gray">\ArrayObject</text>
</g>
<!-- \\ArrayObjectA&#45;&gt;\\ArrayObject -->
<g id="edge7" class="edge"><title>\\ArrayObjectA&#45;&gt;\\ArrayObject</title>
<path fill="none" stroke="black" d="M429.907,-72C381.988,-72 308.138,-72 250.895,-72"/>
<polygon fill="none" stroke="black" points="250.773,-68.5001 240.773,-72 250.773,-75.5001 250.773,-68.5001"/>
</g>
<!-- \\JsonSerializable -->
<g id="node12" class="node"><title>\\JsonSerializable</title>
<ellipse fill="none" stroke="black" cx="167" cy="-18" rx="91.2168" ry="18.3848"/>
<text text-anchor="middle" x="167" y="-14.4" font-family="Times Roman,serif" font-size="14.00" fill="gray">\JsonSerializable</text>
</g>
<!-- \\ArrayObjectA&#45;&gt;\\JsonSerializable -->
<g id="edge9" class="edge"><title>\\ArrayObjectA&#45;&gt;\\JsonSerializable</title>
<path fill="none" stroke="black" stroke-dasharray="1,5" d="M429.725,-62.5235C401.692,-57.2079 365.913,-50.5502 334,-45 306.29,-40.1808 275.942,-35.1888 248.807,-30.8277"/>
<polygon fill="none" stroke="black" points="249.005,-27.3148 238.577,-29.1888 247.898,-34.2267 249.005,-27.3148"/>
</g>
</g>
</svg>
